<svg version="1.0" xmlns="http://www.w3.org/2000/svg"
    xmlns:xlink="http://www.w3.org/1999/xlink" width="100%" height="100%"
    viewBox="0 0 13 40"
    color-interpolation-filters="sRGB">
    <g fill="#6fa8dc" class="newinitialsvg-g newinitialsvg"
    >
        <g class="tp-name">
            <g class="tp-graph" transform="translate(0, 0)">
                <rect data-gra="graph-name" fill="none" x="0" y="11.438030242919922"
                    width="24.31976459048553" height="0"></rect>
                <g data-gra="path-name" transform="translate(-0.00011755216934439261,3)">
                    <g transform="scale(-1, 1) translate(-24.31999969482422, 0)" fill="#B6D7A8">
                        <path
                            d="M26.53-14.35L26.60-13.31Q18.84-13.31 18.75-13.96Q18.66-14.62 18.26-15.18Q17.87-15.75 17.07-16.02Q16.27-16.29 15.54-16.33Q14.82-16.38 14.49-16.38Q14.17-16.38 13.57-16.36Q12.97-16.33 12.04-15.98Q11.10-15.63 10.70-14.90Q10.31-14.17 10.26-13.19Q10.22-12.21 10.26-10.05Q10.31-7.90 11.11-6.98Q11.91-6.07 12.87-6.11Q13.83-6.16 14.40-6.18Q14.98-6.20 15.86-6.24Q16.74-6.27 17.69-6.66Q18.63-7.04 18.65-7.50Q18.66-7.96 18.74-8.64Q18.82-9.32 22.79-9.29L22.79-9.29Q26.67-9.27 26.67-7.99L26.67-7.99L26.67-7.92Q26.55-6.56 26.21-5.10Q25.88-3.63 25.04-2.39Q24.21-1.15 22.65-0.53Q21.09 0.09 19.33 0.09L19.33 0.09L10.58 0.09Q9.02 0.09 7.31-0.46Q5.59-1.02 4.62-1.96Q3.65-2.91 3.19-4.03Q2.73-5.14 2.54-6.98Q2.35-8.82 2.35-10.81L2.35-10.81L2.35-13.81Q2.35-14.84 2.50-16.07Q2.66-17.30 3.25-18.52Q3.84-19.74 4.91-20.61Q5.98-21.48 7.34-22.11Q8.71-22.74 9.50-22.74L9.50-22.74L17.46-22.74Q18.50-22.74 20.21-22.46Q21.93-22.18 23.20-21.50Q24.48-20.82 25.10-19.91Q25.72-19.00 26.06-17.71Q26.40-16.42 26.43-15.92Q26.46-15.41 26.53-14.35L26.53-14.35Z"
                            transform="translate(-2.3462481608631682, 31.17802844531633)"></path>
                    </g>
                </g>
            </g>
            <g transform="translate(26.31976459048553, 0)">
                <g data-gra="path-name" fill="#6fa8dc" transform="translate(0,3)">
                    <g transform="scale(1)">
                        <path
                            d="M2.64-15.43L2.64-15.43Q2.62-15.45 2.62-15.50L2.62-15.50Q2.62-31.18 6.59-31.18L6.59-31.18Q10.54-31.18 10.55-25.85Q10.56-20.53 10.70-20.76Q10.85-20.98 11.42-21.59Q11.98-22.20 13.83-22.53Q15.68-22.85 16.69-22.82Q17.71-22.79 18.59-22.75Q19.47-22.72 20.76-22.44Q22.04-22.15 23.14-21.54Q24.23-20.94 24.97-19.76Q25.72-18.59 26.07-17.01Q26.42-15.43 26.42-13.76L26.42-13.76Q26.42-12.07 26.41-7.03Q26.40-1.99 22.40-0.86L22.40-0.86Q21.75-0.65 21.21-0.65L21.21-0.65Q18.39-0.65 18.39-5.69L18.39-5.69Q18.36-11.66 18.35-13.20Q18.34-14.73 17.68-15.62Q17.01-16.51 15.95-16.66Q14.89-16.81 14.44-16.77Q13.99-16.74 13.52-16.69Q13.06-16.65 12.37-16.37Q11.69-16.09 11.10-15.30Q10.51-14.51 10.52-12.16Q10.54-9.81 10.55-5.80Q10.56-1.78 6.61-0.72L6.61-0.72Q6.34-0.65 6.11-0.65L6.11-0.65Q2.64-0.65 2.64-15.43Z"
                            transform="translate(-2.616969102501226, 31.17802844531633)"></path>
                    </g>
                </g>
            </g>
            <g transform="translate(52.12064737616478, 0)">
                <g data-gra="path-name" fill="#6fa8dc" transform="translate(0,3)">
                    <g transform="scale(1)">
                        <path
                            d="M11.03-16.24L10.87-15.68Q3.18-15.68 3.20-16.67Q3.23-17.66 3.23-18.14Q3.23-18.61 3.47-19.30Q3.72-19.99 4.38-20.64Q5.03-21.30 5.98-21.73Q6.93-22.15 8.03-22.27Q9.14-22.38 9.80-22.39Q10.47-22.40 14.88-22.42Q19.29-22.45 19.94-22.45L19.94-22.45Q20.60-22.45 21.93-22.05Q23.26-21.66 24.22-20.56Q25.18-19.47 25.58-17.79Q25.99-16.11 25.99-14.89L25.99-14.89Q25.99-13.65 25.98-7.60Q25.97-1.56 22.04-0.61L22.04-0.61Q20.03-0.11 19.04-0.11L19.04-0.11Q18.12-0.11 18.12-0.56L18.12-0.56Q18.12-1.47 17.75-1.23Q17.39-0.99 16.74-0.65Q16.09-0.32 15.06-0.16Q14.03 0 13.08 0L13.08 0L8.30 0Q7.56 0 6.27-0.25Q4.99-0.50 4.00-1.50Q3.02-2.50 2.67-3.49Q2.32-4.47 2.21-6.16L2.21-6.16Q2.14-7.04 2.14-7.65L2.14-7.65Q2.14-8.21 2.19-8.57L2.19-8.57Q2.30-9.29 2.40-9.93Q2.50-10.56 3.11-11.66Q3.72-12.77 4.87-13.38Q6.02-13.99 6.99-13.99L6.99-13.99L13.72-13.99Q13.87-13.99 15.44-13.87Q17.01-13.76 17.16-13.68Q17.30-13.60 17.71-13.39Q18.12-13.18 18.12-13.60Q18.12-14.03 18.10-14.63Q18.09-15.23 17.90-15.81Q17.71-16.40 17.15-16.73Q16.58-17.06 15.94-17.21Q15.30-17.37 14.96-17.37L14.96-17.37L12.50-17.37Q12.21-17.37 11.71-17.18Q11.21-16.99 11.21-16.91Q11.21-16.83 11.03-16.24L11.03-16.24ZM12.79-5.23L12.79-5.23L15.32-5.23Q16.11-5.23 16.81-5.39Q17.51-5.55 17.91-6.15Q18.32-6.75 18.25-7.32Q18.18-7.90 18.14-8.23Q18.09-8.57 17.81-8.90Q17.53-9.23 16.94-9.37Q16.36-9.52 15.66-9.52L15.66-9.52L12.77-9.52Q12.45-9.52 11.74-9.31Q11.03-9.09 10.67-8.74Q10.31-8.39 10.26-7.78Q10.22-7.17 10.28-7.02Q10.33-6.86 10.40-6.59Q10.47-6.32 10.81-6.00Q11.14-5.69 11.77-5.46Q12.39-5.23 12.79-5.23Z"
                            transform="translate(-2.143207454634625, 31.17802844531633)"></path>
                    </g>
                </g>
            </g>
            <g transform="translate(77.9666503187837, 0)">
                <g data-gra="path-name" fill="#6fa8dc" transform="translate(0,3)">
                    <g transform="scale(1)">
                        <path
                            d="M2.66-19.90L2.66-19.90Q2.66-22.70 4.02-22.70Q5.37-22.70 5.37-25.22Q5.37-27.75 9.29-27.75L9.29-27.75Q13.22-27.75 13.22-25.22Q13.22-22.70 18.48-22.70Q23.73-22.70 22.75-19.91Q21.77-17.12 17.48-17.11Q13.20-17.10 13.20-13.24L13.20-13.24L13.20-8.46Q13.20-7.54 13.29-6.95Q13.38-6.36 13.84-5.84Q14.30-5.32 14.81-5.46Q15.32-5.59 15.58-5.65Q15.84-5.71 16.30-6.27Q16.76-6.84 16.75-7.11Q16.74-7.38 16.75-8.31Q16.76-9.25 20.37-9.25L20.37-9.25Q23.96-9.25 23.96-8.66L23.96-8.66Q23.91-8.08 23.85-6.85Q23.78-5.62 23.49-4.39Q23.19-3.16 22.51-2.28Q21.84-1.40 20.91-0.87Q19.99-0.34 18.78-0.16Q17.57 0.02 16.33 0.02Q15.09 0.02 13.42 0.02L13.42 0.02L13.31 0.02Q11.69 0.02 10.02-0.27L10.02-0.27Q8.26-0.56 7.30-1.42Q6.34-2.28 5.90-3.44Q5.46-4.60 5.41-5.32Q5.37-6.05 5.37-7.94L5.37-7.94L5.37-13.47Q5.37-17.10 4.02-17.10Q2.66-17.10 2.66-19.90Z"
                            transform="translate(-2.6620892594409025, 31.17802844531633)"></path>
                    </g>
                </g>
            </g>
            <g transform="translate(101.26336439431093, 0)">
                <g data-gra="path-name" fill="#6fa8dc" transform="translate(0,3)">
                    <g transform="scale(1)">
                        <path d="M1.94-15.79L29.71-15.79L29.71-11.89L1.94-11.89L1.94-15.79Z"
                            transform="translate(-1.9401667484060814, 31.17802844531633)"></path>
                    </g>
                </g>
            </g>
            <g transform="translate(131.03482099068168, 0)">
                <g data-gra="path-name" fill="#6fa8dc" transform="translate(0,3)">
                    <g transform="scale(1)">
                        <path
                            d="M2.66-19.90L2.66-19.90Q2.66-22.70 4.02-22.70Q5.37-22.70 5.37-25.22Q5.37-27.75 9.29-27.75L9.29-27.75Q13.22-27.75 13.22-25.22Q13.22-22.70 18.48-22.70Q23.73-22.70 22.75-19.91Q21.77-17.12 17.48-17.11Q13.20-17.10 13.20-13.24L13.20-13.24L13.20-8.46Q13.20-7.54 13.29-6.95Q13.38-6.36 13.84-5.84Q14.30-5.32 14.81-5.46Q15.32-5.59 15.58-5.65Q15.84-5.71 16.30-6.27Q16.76-6.84 16.75-7.11Q16.74-7.38 16.75-8.31Q16.76-9.25 20.37-9.25L20.37-9.25Q23.96-9.25 23.96-8.66L23.96-8.66Q23.91-8.08 23.85-6.85Q23.78-5.62 23.49-4.39Q23.19-3.16 22.51-2.28Q21.84-1.40 20.91-0.87Q19.99-0.34 18.78-0.16Q17.57 0.02 16.33 0.02Q15.09 0.02 13.42 0.02L13.42 0.02L13.31 0.02Q11.69 0.02 10.02-0.27L10.02-0.27Q8.26-0.56 7.30-1.42Q6.34-2.28 5.90-3.44Q5.46-4.60 5.41-5.32Q5.37-6.05 5.37-7.94L5.37-7.94L5.37-13.47Q5.37-17.10 4.02-17.10Q2.66-17.10 2.66-19.90Z"
                            transform="translate(-2.6620892594409025, 31.17802844531633)"></path>
                    </g>
                </g>
            </g>
            <g transform="translate(154.33153506620891, 0)">
                <g data-gra="path-name" fill="#6fa8dc" transform="translate(0,3)">
                    <g transform="scale(1)">
                        <path
                            d="M11.03-16.24L10.87-15.68Q3.18-15.68 3.20-16.67Q3.23-17.66 3.23-18.14Q3.23-18.61 3.47-19.30Q3.72-19.99 4.38-20.64Q5.03-21.30 5.98-21.73Q6.93-22.15 8.03-22.27Q9.14-22.38 9.80-22.39Q10.47-22.40 14.88-22.42Q19.29-22.45 19.94-22.45L19.94-22.45Q20.60-22.45 21.93-22.05Q23.26-21.66 24.22-20.56Q25.18-19.47 25.58-17.79Q25.99-16.11 25.99-14.89L25.99-14.89Q25.99-13.65 25.98-7.60Q25.97-1.56 22.04-0.61L22.04-0.61Q20.03-0.11 19.04-0.11L19.04-0.11Q18.12-0.11 18.12-0.56L18.12-0.56Q18.12-1.47 17.75-1.23Q17.39-0.99 16.74-0.65Q16.09-0.32 15.06-0.16Q14.03 0 13.08 0L13.08 0L8.30 0Q7.56 0 6.27-0.25Q4.99-0.50 4.00-1.50Q3.02-2.50 2.67-3.49Q2.32-4.47 2.21-6.16L2.21-6.16Q2.14-7.04 2.14-7.65L2.14-7.65Q2.14-8.21 2.19-8.57L2.19-8.57Q2.30-9.29 2.40-9.93Q2.50-10.56 3.11-11.66Q3.72-12.77 4.87-13.38Q6.02-13.99 6.99-13.99L6.99-13.99L13.72-13.99Q13.87-13.99 15.44-13.87Q17.01-13.76 17.16-13.68Q17.30-13.60 17.71-13.39Q18.12-13.18 18.12-13.60Q18.12-14.03 18.10-14.63Q18.09-15.23 17.90-15.81Q17.71-16.40 17.15-16.73Q16.58-17.06 15.94-17.21Q15.30-17.37 14.96-17.37L14.96-17.37L12.50-17.37Q12.21-17.37 11.71-17.18Q11.21-16.99 11.21-16.91Q11.21-16.83 11.03-16.24L11.03-16.24ZM12.79-5.23L12.79-5.23L15.32-5.23Q16.11-5.23 16.81-5.39Q17.51-5.55 17.91-6.15Q18.32-6.75 18.25-7.32Q18.18-7.90 18.14-8.23Q18.09-8.57 17.81-8.90Q17.53-9.23 16.94-9.37Q16.36-9.52 15.66-9.52L15.66-9.52L12.77-9.52Q12.45-9.52 11.74-9.31Q11.03-9.09 10.67-8.74Q10.31-8.39 10.26-7.78Q10.22-7.17 10.28-7.02Q10.33-6.86 10.40-6.59Q10.47-6.32 10.81-6.00Q11.14-5.69 11.77-5.46Q12.39-5.23 12.79-5.23Z"
                            transform="translate(-2.143207454634625, 31.17802844531633)"></path>
                    </g>
                </g>
            </g>
            <g transform="translate(180.17753800882784, 0)">
                <g data-gra="path-name" fill="#6fa8dc" transform="translate(0,3)">
                    <g transform="scale(1)">
                        <path
                            d="M26.51-6.41L26.51-6.41L26.51-6.38Q26.51-1.74 22.47-0.72L22.47-0.72Q21.84-0.54 21.30-0.54L21.30-0.54Q18.41-0.54 18.43-5.26L18.43-5.26Q18.45-10.83 18.45-11.78Q18.45-12.72 18.14-13.86Q17.82-15.00 16.97-15.61Q16.11-16.22 15.31-16.21Q14.51-16.20 13.72-16.18Q12.93-16.15 12.06-15.58Q11.19-15.00 10.74-14.08Q10.29-13.15 10.30-11.91Q10.31-10.67 10.33-6.29Q10.36-1.92 6.41-0.79L6.41-0.79Q6.05-0.68 5.71-0.68L5.71-0.68Q2.44-0.68 2.44-10.99L2.44-10.99Q2.44-11.01 2.46-11.05L2.46-11.05Q2.46-22.42 6.41-22.41Q10.36-22.40 10.36-21.30Q10.36-20.19 10.66-20.54Q10.96-20.89 11.42-21.25Q11.87-21.61 12.71-22.00Q13.56-22.38 14.66-22.51L14.66-22.51Q15.54-22.63 16.45-22.63L16.45-22.63L16.90-22.63Q18.00-22.58 19.18-22.53Q20.35-22.47 21.66-22.14Q22.97-21.82 24.00-21.00Q25.04-20.19 25.56-19.19Q26.08-18.18 26.27-16.93Q26.46-15.68 26.47-13.38Q26.49-11.08 26.51-6.41Z"
                            transform="translate(-2.4364884747425206, 31.17802844531633)"></path>
                    </g>
                </g>
            </g>
        </g> <!---->
    </g>
</svg>